<?xml version="1.0" encoding="UTF-8" standalone="no"?>
<svg
   width="16"
   height="16"
   fill="currentColor"
   class="bi bi-award"
   viewBox="0 0 16 16"
   version="1.1"
   id="svg1692"
   sodipodi:docname="award-gray.svg"
   inkscape:version="1.2.2 (b0a8486, 2022-12-01)"
   xmlns:inkscape="http://www.inkscape.org/namespaces/inkscape"
   xmlns:sodipodi="http://sodipodi.sourceforge.net/DTD/sodipodi-0.dtd"
   xmlns="http://www.w3.org/2000/svg"
   xmlns:svg="http://www.w3.org/2000/svg">
  <defs
     id="defs1696" />
  <sodipodi:namedview
     id="namedview1694"
     pagecolor="#ffffff"
     bordercolor="#000000"
     borderopacity="0.25"
     inkscape:showpageshadow="2"
     inkscape:pageopacity="0.0"
     inkscape:pagecheckerboard="0"
     inkscape:deskcolor="#d1d1d1"
     showgrid="false"
     inkscape:zoom="64.1875"
     inkscape:cx="5.6163583"
     inkscape:cy="8"
     inkscape:window-width="1707"
     inkscape:window-height="1387"
     inkscape:window-x="0"
     inkscape:window-y="25"
     inkscape:window-maximized="0"
     inkscape:current-layer="svg1692" />
  <path
     d="M9.669.864 8 0 6.331.864l-1.858.282-.842 1.68-1.337 1.32L2.6 6l-.306 1.854 1.337 1.32.842 1.68 1.858.282L8 12l1.669-.864 1.858-.282.842-1.68 1.337-1.32L13.4 6l.306-1.854-1.337-1.32-.842-1.68L9.669.864zm1.196 1.193.684 1.365 1.086 1.072L12.387 6l.248 1.506-1.086 1.072-.684 1.365-1.51.229L8 10.874l-1.355-.702-1.51-.229-.684-1.365-1.086-1.072L3.614 6l-.25-1.506 1.087-1.072.684-1.365 1.51-.229L8 1.126l1.356.702 1.509.229z"
     id="path1688"
     style="fill:#232323;fill-opacity:0.50196081" />
  <path
     d="M4 11.794V16l4-1 4 1v-4.206l-2.018.306L8 13.126 6.018 12.1 4 11.794z"
     id="path1690"
     style="fill:#232323;fill-opacity:0.50196081" />
</svg>
